<svg width="33" height="32" viewBox="0 0 33 32" fill="none" xmlns="http://www.w3.org/2000/svg">
<mask id="mask0" mask-type="alpha" maskUnits="userSpaceOnUse" x="0" y="0" width="33" height="32">
<rect width="33" height="32" fill="#C4C4C4"/>
</mask>
<g mask="url(#mask0)">
<path d="M22.0876 27.9444C20.8888 27.9768 19.7015 27.7042 18.6382 27.1524C17.5748 26.6006 16.6706 25.7878 16.0112 24.791C13.9355 26.7229 11.2279 27.8428 8.3877 27.9444C3.29916 27.9444 0.540541 24.3737 1.47251 19.2542C2.1808 15.4053 5.34949 11.5471 6.23486 8.44943C4.52004 7.41069 1.97577 6.68728 0.782852 8.81113L0 8.33813C0.624418 6.01024 2.1342 4.46141 4.315 4.46141C6.49581 4.46141 8.10811 5.75056 10.1864 4.56343H11.8453C10.9599 9.20066 8.72321 12.9104 7.53029 19.4026C6.80335 23.3813 8.15471 25.1898 10.438 25.1898C12.1312 24.9776 13.6853 24.1482 14.7996 22.8619C13.8882 20.5944 13.4292 18.172 13.4483 15.7299C13.4483 10.091 16.0485 4.14608 20.4101 4.14608C22.6468 4.14608 24.3057 5.69491 24.3057 9.3676C24.3057 13.0403 22.069 18.7255 19.2171 22.2962C19.3712 23.1464 19.8186 23.9164 20.4821 24.4735C21.1457 25.0305 21.9837 25.3396 22.8518 25.3475C27.0084 25.3475 29.9161 19.1429 29.9161 13.402C29.9161 7.6611 27.4185 7.92078 27.6328 5.98242C27.671 5.49506 27.9009 5.0424 28.2726 4.72284C28.6444 4.40328 29.1278 4.24267 29.6179 4.27592C30.9133 4.27592 32.6188 5.90822 32.6188 12.5302C32.6188 20.97 28.1081 27.9444 22.0876 27.9444ZM21.1463 7.05826C19.8509 7.05826 18.6021 11.8161 18.4436 16.7315C18.3831 17.7825 18.4018 18.8366 18.4995 19.8848C20.457 16.6613 21.6491 13.0356 21.9851 9.28413C21.9758 7.61473 21.6682 7.05826 21.1463 7.05826ZM41.1556 27.731C40.6121 27.7871 40.0629 27.7235 39.5468 27.5448C39.0307 27.3662 38.5604 27.0768 38.1691 26.6972C37.7779 26.3176 37.4753 25.857 37.2827 25.3481C37.0902 24.8392 37.0125 24.2944 37.055 23.7523C37.055 21.48 40.0186 10.1559 40.0186 8.29176C40.0186 7.41069 39.8136 6.89132 39.0308 6.89132C38.1552 7.03435 37.3416 7.43116 36.6915 8.03208V6.42759C38.041 5.18706 39.7947 4.47249 41.6309 4.41504C42.1777 4.36615 42.7287 4.43656 43.2453 4.62136C43.762 4.80615 44.2319 5.10088 44.6223 5.48499C45.0127 5.8691 45.3142 6.33334 45.5058 6.84534C45.6974 7.35733 45.7745 7.90475 45.7316 8.44943C45.7316 10.7217 42.7679 21.9994 42.7679 23.8543C42.7679 24.7354 42.973 25.2548 43.7558 25.2548C44.6195 25.1092 45.4277 24.7343 46.0951 24.1696V25.7185C44.7507 26.967 42.9938 27.6828 41.1556 27.731ZM44.7903 -4.99855C45.1965 -5.01162 45.6007 -4.93642 45.9747 -4.77818C46.3487 -4.61994 46.6835 -4.38247 46.9558 -4.0823C47.2282 -3.78213 47.4315 -3.42649 47.5517 -3.04014C47.6718 -2.65378 47.7058 -2.24601 47.6514 -1.84523C47.5526 -0.990391 47.146 -0.200081 46.507 0.379588C45.868 0.959258 45.0397 1.28908 44.1752 1.30809C43.769 1.32117 43.3649 1.24597 42.9909 1.08773C42.6169 0.929488 42.282 0.692014 42.0097 0.391846C41.7373 0.0916781 41.534 -0.263967 41.4139 -0.650319C41.2937 -1.03667 41.2597 -1.44444 41.3141 -1.84523C41.4129 -2.70006 41.8195 -3.49037 42.4585 -4.07004C43.0975 -4.64971 43.9258 -4.97954 44.7903 -4.99855ZM56.328 22.8712C56.0671 24.2717 56.2255 25.2455 57.2134 25.2455C58.0803 25.1102 58.8911 24.734 59.5527 24.1604L59.6459 25.7185C58.2964 26.959 56.5426 27.6736 54.7064 27.731C51.4818 27.731 50.233 25.4031 50.7083 22.5095L53.877 4.56343C54.9301 -1.42788 54.5666 -2.21621 51.342 -2.21621L51.5471 -3.66302L61.2675 -4.9429L56.328 22.8712ZM83.6626 22.8248C83.4017 24.2253 83.5042 25.2548 84.548 25.2548C85.4164 25.0901 86.2244 24.6961 86.8872 24.114V25.7185C85.5467 26.9729 83.7874 27.6897 81.9478 27.731C81.0181 27.7986 80.0966 27.5171 79.3651 26.942C78.6337 26.3669 78.1453 25.5399 77.9963 24.6241C77.2172 25.651 76.2128 26.4873 75.0596 27.0691C73.9064 27.6509 72.6349 27.963 71.342 27.9814C65.1631 27.9814 62.5629 22.5559 63.7558 16.0359C64.9487 9.51599 70.5126 4.19245 76.8034 4.19245C78.2925 4.16166 79.7649 4.50962 81.0811 5.20337L81.2395 4.37794C82.4697 -2.00289 81.9012 -2.21621 78.6766 -2.21621L78.835 -3.66302L88.6021 -4.9429L83.6626 22.8248ZM76.9618 6.52961C73.3737 6.52961 70.9879 10.768 70.0466 15.9896C69.0587 21.4708 69.6831 25.264 73.0568 25.264C75.3402 25.264 77.9404 22.4817 78.7232 18.234L80.6431 7.47561C79.536 6.80716 78.2556 6.47813 76.9618 6.52961ZM100.084 27.9907C92.8611 27.9907 90.8854 22.8156 91.7707 17.8537L94.1286 4.56343C95.219 -1.43715 94.8555 -2.26258 91.6309 -2.26258L91.836 -3.70939L101.584 -4.9429L99.6086 6.32558C101.125 5.01306 103.051 4.26273 105.061 4.20172C111.351 4.20172 114.306 9.52527 113.169 16.0452C112.032 22.5652 106.244 27.9907 100.084 27.9907ZM103.458 6.65946C102.408 6.68107 101.391 7.03274 100.554 7.66412C99.7172 8.29549 99.1024 9.17421 98.7978 10.1745L97.3439 18.5215C96.4585 23.4833 98.2293 25.5052 100.466 25.5052C103.737 25.5052 105.769 21.8881 106.859 15.9432C107.829 10.6197 106.943 6.68728 103.448 6.68728L103.458 6.65946ZM123.02 19.0501C123.02 23.0289 124.939 25.1527 128.611 25.1527C130.475 25.1527 133.187 23.8636 134.902 22.1571L135.629 23.8079C134.398 25.107 132.917 26.1473 131.275 26.8673C129.632 27.5874 127.862 27.9725 126.067 28C120.615 28 116.925 23.9656 116.925 18.4844C116.925 10.3692 123.681 4.211 130.177 4.211C134.129 4.211 136.356 6.38122 136.356 8.91315C136.309 12.8455 132.563 17.2602 123.02 19.0501ZM129.72 6.58526C126.757 6.58526 123.905 10.8793 123.122 17.0283C129.096 15.5815 131.64 11.5471 131.696 8.95952C131.687 7.51271 131.007 6.58526 129.711 6.58526H129.72ZM157.558 27.731C156.628 27.7986 155.707 27.5171 154.976 26.942C154.244 26.3669 153.756 25.5399 153.607 24.6241C152.857 25.6503 151.877 26.4882 150.744 27.0711C149.612 27.6539 148.358 27.9657 147.083 27.9814C141.007 27.9814 138.406 22.5559 139.627 16.0359C140.848 9.51599 146.319 4.20172 152.628 4.20172C153.966 4.1946 155.292 4.45971 156.524 4.98078H162.451L159.273 22.8248C159.012 24.2253 159.115 25.2548 160.158 25.2548C161.027 25.0901 161.835 24.6961 162.498 24.114V25.7185C161.157 26.9729 159.398 27.6897 157.558 27.731ZM152.777 6.52961C149.292 6.52961 146.85 10.768 145.918 15.9896C144.93 21.4708 145.61 25.264 148.714 25.264C151.1 25.264 153.653 22.3704 154.38 18.234L156.3 7.47561C155.255 6.80708 154.028 6.47664 152.787 6.52961H152.777ZM180.634 10.3043C179.226 10.3043 178.863 9.21921 178.453 8.07845C178.315 7.50353 177.98 6.99451 177.505 6.63902C177.03 6.28354 176.446 6.10382 175.853 6.13081C175.082 6.09051 174.324 6.33833 173.727 6.82565C173.131 7.31297 172.739 8.00459 172.628 8.76476C172.47 10.1652 173.514 11.3523 175.489 13.0588L178.136 15.2291C179.123 15.9729 179.886 16.9707 180.344 18.1149C180.803 19.259 180.938 20.506 180.736 21.7212C180.065 25.5979 176.841 27.9814 172.526 27.9814C167.325 27.9814 164.007 24.9302 164.371 22.8619C164.455 22.3178 164.731 21.8212 165.149 21.461C165.568 21.1007 166.101 20.9004 166.654 20.8958C168.006 20.8958 168.518 21.9252 168.938 23.27C169.206 24.0422 169.724 24.7045 170.41 25.154C171.096 25.6034 171.912 25.8149 172.731 25.7556C173.54 25.7935 174.335 25.5292 174.959 25.0146C175.583 24.4999 175.991 23.7719 176.104 22.9732C176.309 21.1183 175.172 19.9776 173.038 18.0578L170.438 15.7855C169.521 15.0876 168.807 14.1601 168.368 13.0978C167.93 12.0354 167.782 10.8763 167.94 9.73858C168.406 7.25302 170.736 4.1739 176.095 4.1739C180.252 4.1739 182.852 6.50179 182.619 8.36596C182.593 8.87819 182.375 9.36208 182.007 9.72127C181.639 10.0805 181.149 10.2886 180.634 10.3043ZM199.655 7.05826H194.613L192.171 20.803C191.65 23.6503 192.069 24.9394 193.625 24.9394C194.455 24.9394 195.76 24.4757 197.623 22.5652L197.726 24.5777C196.883 25.5729 195.833 26.3749 194.649 26.9287C193.465 27.4826 192.175 27.7753 190.867 27.7867C187.335 27.7867 185.564 25.3011 186.403 20.701L188.844 7.05826H184.902L185.21 4.93441H189.189L190.233 -1.21456H196.048L194.958 4.93441H200L199.655 7.05826Z" fill="#8844EE"/>
</g>
</svg>
